name analog
datacolumns 19
datarows 52
range 0.506 0.5315
endheader
time	ground_force_vx	ground_force_vy	ground_force_vz	ground_force_px	ground_force_py	ground_force_pz	l_ground_force_vx	l_ground_force_vy	l_ground_force_vz	l_ground_force_px	l_ground_force_py	l_ground_force_pz	ground_torque_x	ground_torque_y	ground_torque_z	l_ground_torque_x	l_ground_torque_y	l_ground_torque_z
0.506	-0.0	-0.0	-0.0	-0.0	-0.0	-0.0	-7.036856174468994	-12.900139808654783	-487.08697509765625	-0.0	-0.0	-0.0	-0.0	-0.0	-0.0	169473.359375	-27993.013671875	-3272.1943359375
0.5065000000000001	-0.0	-0.0	-0.0	-0.0	-0.0	-0.0	-6.121044158935547	-14.017433166503906	-484.6335144042969	-0.0	-0.0	-0.0	-0.0	-0.0	-0.0	168494.5625	-28081.70703125	-2895.839111328125
0.507	-0.0	-0.0	-0.0	-0.0	-0.0	-0.0	-5.683440685272217	-15.131461143493652	-482.2791442871094	-0.0	-0.0	-0.0	-0.0	-0.0	-0.0	167700.65625	-28230.78515625	-2500.65966796875
0.5075000000000001	-0.0	-0.0	-0.0	-0.0	-0.0	-0.0	-4.790382385253906	-15.894710540771484	-481.7170715332031	-0.0	-0.0	-0.0	-0.0	-0.0	-0.0	167495.125	-28513.9921875	-2232.2470703125
0.508	-0.0	-0.0	-0.0	-0.0	-0.0	-0.0	-3.8714349269866943	-16.597698211669922	-481.9545593261719	-0.0	-0.0	-0.0	-0.0	-0.0	-0.0	167402.015625	-28812.32421875	-1994.459716796875
0.5085000000000001	-0.0	-0.0	-0.0	-0.0	-0.0	-0.0	-3.786184549331665	-17.21917152404785	-484.14752197265625	-0.0	-0.0	-0.0	-0.0	-0.0	-0.0	167617.46875	-29249.283203125	-1805.88818359375
0.509	-0.0	-0.0	-0.0	-0.0	-0.0	-0.0	-3.310600996017456	-17.671913146972656	-484.986572265625	-0.0	-0.0	-0.0	-0.0	-0.0	-0.0	168300.546875	-29722.720703125	-1700.238037109375
0.5095000000000001	-0.0	-0.0	-0.0	-0.0	-0.0	-0.0	-2.604851245880127	-17.017972946166992	-487.161865234375	-0.0	-0.0	-0.0	-0.0	-0.0	-0.0	169019.046875	-30365.060546875	-1649.8157958984375
0.51	-0.0	-0.0	-0.0	-0.0	-0.0	-0.0	-2.427570581436157	-16.72503662109375	-489.7322692871094	-0.0	-0.0	-0.0	-0.0	-0.0	-0.0	170517.0	-31073.810546875	-1510.831298828125
0.5105000000000001	-0.0	-0.0	-0.0	-0.0	-0.0	-0.0	-1.3350636959075928	-16.111291885375977	-493.6484375	-0.0	-0.0	-0.0	-0.0	-0.0	-0.0	171319.796875	-31940.275390625	-1222.7393798828125
0.511	-0.0	-0.0	-0.0	-0.0	-0.0	-0.0	-0.3594137728214264	-15.614115715026855	-497.19189453125	-0.0	-0.0	-0.0	-0.0	-0.0	-0.0	172715.484375	-32641.556640625	-1090.8841552734375
0.5115000000000001	-0.0	-0.0	-0.0	-0.0	-0.0	-0.0	0.709686279296875	-14.61048698425293	-499.5981750488281	-0.0	-0.0	-0.0	-0.0	-0.0	-0.0	173666.015625	-33319.57421875	-843.1522216796875
0.512	-0.0	-0.0	-0.0	-0.0	-0.0	-0.0	1.6905040740966797	-14.247572898864746	-502.99798583984375	-0.0	-0.0	-0.0	-0.0	-0.0	-0.0	174506.625	-33901.00390625	-644.0230102539062
0.5125	-0.0	-0.0	-0.0	-0.0	-0.0	-0.0	2.0681958198547363	-13.629264831542969	-504.8935852050781	-0.0	-0.0	-0.0	-0.0	-0.0	-0.0	175043.34375	-34526.125	-523.17578125
0.513	-0.0	-0.0	-0.0	-0.0	-0.0	-0.0	2.578011512756348	-13.303550720214844	-504.85198974609375	-0.0	-0.0	-0.0	-0.0	-0.0	-0.0	175400.625	-34843.48828125	-424.3231201171875
0.5135	-0.0	-0.0	-0.0	-0.0	-0.0	-0.0	2.666919469833374	-13.402884483337402	-506.5749816894531	-0.0	-0.0	-0.0	-0.0	-0.0	-0.0	175650.75	-35128.91015625	-481.654052734375
0.514	-0.0	-0.0	-0.0	-0.0	-0.0	-0.0	2.2177696228027344	-13.452409744262695	-506.4645385742188	-0.0	-0.0	-0.0	-0.0	-0.0	-0.0	175484.578125	-35324.390625	-613.6017456054688
0.5145	-0.0	-0.0	-0.0	-0.0	-0.0	-0.0	2.551037073135376	-13.805633544921877	-504.9581909179688	-0.0	-0.0	-0.0	-0.0	-0.0	-0.0	175337.328125	-35532.54296875	-663.5208740234375
0.515	-0.0	-0.0	-0.0	-0.0	-0.0	-0.0	2.190254211425781	-13.872642517089844	-507.341552734375	-0.0	-0.0	-0.0	-0.0	-0.0	-0.0	175103.59375	-35423.59765625	-697.5625
0.5155	-0.0	-0.0	-0.0	-0.0	-0.0	-0.0	2.171143054962158	-14.015830039978027	-506.9429931640625	-0.0	-0.0	-0.0	-0.0	-0.0	-0.0	175557.625	-36068.640625	-682.1500244140625
0.516	-0.0	-0.0	-0.0	-0.0	-0.0	-0.0	2.0129754543304443	-13.500088691711426	-507.4509887695313	-0.0	-0.0	-0.0	-0.0	-0.0	-0.0	175677.109375	-36036.9921875	-704.78125
0.5165	-0.0	-0.0	-0.0	-0.0	-0.0	-0.0	1.924320936203003	-13.302645683288574	-507.9889831542969	-0.0	-0.0	-0.0	-0.0	-0.0	-0.0	175844.265625	-36216.20703125	-777.8875732421875
0.517	-0.0	-0.0	-0.0	-0.0	-0.0	-0.0	1.5010902881622314	-13.004175186157228	-506.4842529296875	-0.0	-0.0	-0.0	-0.0	-0.0	-0.0	175623.4375	-36275.6171875	-1029.02978515625
0.5175	-0.0	-0.0	-0.0	-0.0	-0.0	-0.0	1.2491412162780762	-11.766679763793944	-506.4837341308594	-0.0	-0.0	-0.0	-0.0	-0.0	-0.0	175459.109375	-36397.328125	-1158.9979248046875
0.518	-0.0	-0.0	-0.0	-0.0	-0.0	-0.0	0.9290152788162231	-11.18986988067627	-504.8732299804688	-0.0	-0.0	-0.0	-0.0	-0.0	-0.0	174933.015625	-36590.09375	-1281.84765625
0.5185	-0.0	-0.0	-0.0	-0.0	-0.0	-0.0	0.8600674867630005	-10.68692398071289	-506.2698364257813	-0.0	-0.0	-0.0	-0.0	-0.0	-0.0	175184.75	-36512.7890625	-1375.6905517578125
0.519	-0.0	-0.0	-0.0	-0.0	-0.0	-0.0	0.6132176518440247	-9.86516284942627	-504.97943115234375	-0.0	-0.0	-0.0	-0.0	-0.0	-0.0	175235.859375	-36777.1875	-1503.318359375
0.5195	-0.0	-0.0	-0.0	-0.0	-0.0	-0.0	0.6558719277381897	-8.966114044189453	-506.65045166015625	-0.0	-0.0	-0.0	-0.0	-0.0	-0.0	175385.4375	-36855.46484375	-1402.3466796875
0.52	-0.0	-0.0	-0.0	-0.0	-0.0	-0.0	0.6291617751121521	-8.663675308227539	-505.8150634765625	-0.0	-0.0	-0.0	-0.0	-0.0	-0.0	175552.34375	-37049.35546875	-1434.6026611328125
0.5205	-0.0	-0.0	-0.0	-0.0	-0.0	-0.0	0.470338374376297	-8.02724838256836	-505.1894836425781	-0.0	-0.0	-0.0	-0.0	-0.0	-0.0	175616.578125	-37447.9765625	-1455.242431640625
0.521	-0.0	-0.0	-0.0	-0.0	-0.0	-0.0	0.523675799369812	-7.348738670349121	-503.30023193359375	-0.0	-0.0	-0.0	-0.0	-0.0	-0.0	175188.0	-37480.6328125	-1363.1678466796875
0.5215	-0.0	-0.0	-0.0	-0.0	-0.0	-0.0	0.6297613978385925	-6.792022228240967	-503.9306640625	-0.0	-0.0	-0.0	-0.0	-0.0	-0.0	175039.0625	-37881.81640625	-1434.059814453125
0.522	-0.0	-0.0	-0.0	-0.0	-0.0	-0.0	0.8339663147926331	-6.341243267059326	-500.9971618652344	-0.0	-0.0	-0.0	-0.0	-0.0	-0.0	174523.421875	-37941.2421875	-1267.686279296875
0.5225	-0.0	-0.0	-0.0	-0.0	-0.0	-0.0	1.1267318725585938	-6.518558502197266	-500.6472778320313	-0.0	-0.0	-0.0	-0.0	-0.0	-0.0	174038.09375	-38291.8046875	-1006.7109985351562
0.523	-0.0	-0.0	-0.0	-0.0	-0.0	-0.0	1.8006677627563477	-6.349847793579102	-499.8810119628906	-0.0	-0.0	-0.0	-0.0	-0.0	-0.0	173387.828125	-38253.859375	-626.4050903320312
0.5235	-0.0	-0.0	-0.0	-0.0	-0.0	-0.0	2.72365951538086	-6.960698127746582	-498.0223693847656	-0.0	-0.0	-0.0	-0.0	-0.0	-0.0	173134.859375	-38506.4765625	-406.3079528808594
0.524	-0.0	-0.0	-0.0	-0.0	-0.0	-0.0	2.910929918289185	-6.712448120117188	-499.144775390625	-0.0	-0.0	-0.0	-0.0	-0.0	-0.0	173346.453125	-38750.2421875	-79.82927703857422
0.5245	-0.0	-0.0	-0.0	-0.0	-0.0	-0.0	3.4597206115722656	-6.862954139709473	-499.4934692382813	-0.0	-0.0	-0.0	-0.0	-0.0	-0.0	173936.796875	-39482.3125	60.04544448852539
0.525	-0.0	-0.0	-0.0	-0.0	-0.0	-0.0	3.887283325195313	-6.519883632659912	-501.3416442871094	-0.0	-0.0	-0.0	-0.0	-0.0	-0.0	174210.140625	-39994.90625	341.51318359375
0.5255	-0.0	-0.0	-0.0	-0.0	-0.0	-0.0	4.044205188751221	-6.28117561340332	-500.6016845703125	-0.0	-0.0	-0.0	-0.0	-0.0	-0.0	174130.421875	-40510.05078125	493.3671875
0.526	-0.0	-0.0	-0.0	-0.0	-0.0	-0.0	4.3834614753723145	-6.151763916015625	-500.3342895507813	-0.0	-0.0	-0.0	-0.0	-0.0	-0.0	174243.625	-40727.32421875	755.4057006835938
0.5265	-0.0	-0.0	-0.0	-0.0	-0.0	-0.0	4.779601573944092	-5.512540817260742	-500.3940734863281	-0.0	-0.0	-0.0	-0.0	-0.0	-0.0	174087.765625	-40787.4765625	878.1526489257812
0.527	-0.0	-0.0	-0.0	-0.0	-0.0	-0.0	4.879093170166016	-5.387622833251953	-499.2437438964844	-0.0	-0.0	-0.0	-0.0	-0.0	-0.0	174052.59375	-41552.7578125	1075.01318359375
0.5275	-0.0	-0.0	-0.0	-0.0	-0.0	-0.0	5.307984352111816	-5.210979461669922	-498.0496520996094	-0.0	-0.0	-0.0	-0.0	-0.0	-0.0	173926.484375	-41580.3359375	1087.640380859375
0.528	-0.0	-0.0	-0.0	-0.0	-0.0	-0.0	5.600157737731934	-4.906013488769531	-498.3408203125	-0.0	-0.0	-0.0	-0.0	-0.0	-0.0	173645.953125	-41830.6015625	1353.84765625
0.5285	-0.0	-0.0	-0.0	-0.0	-0.0	-0.0	5.817643165588379	-4.794979572296143	-500.8755493164063	-0.0	-0.0	-0.0	-0.0	-0.0	-0.0	173935.53125	-42208.19921875	1410.469970703125
0.529	-0.0	-0.0	-0.0	-0.0	-0.0	-0.0	6.006689548492432	-4.769371032714844	-499.985107421875	-0.0	-0.0	-0.0	-0.0	-0.0	-0.0	174093.296875	-42364.70703125	1664.944580078125
0.5295	-0.0	-0.0	-0.0	-0.0	-0.0	-0.0	6.3991522789001465	-5.122657775878906	-500.2871398925781	-0.0	-0.0	-0.0	-0.0	-0.0	-0.0	174367.046875	-42841.68359375	1821.3094482421875
0.53	-0.0	-0.0	-0.0	-0.0	-0.0	-0.0	6.957137584686279	-5.865638256072998	-501.4821166992188	-0.0	-0.0	-0.0	-0.0	-0.0	-0.0	174363.0625	-43184.0	2126.66357421875
0.5305	-0.0	-0.0	-0.0	-0.0	-0.0	-0.0	7.2110185623168945	-6.157184600830078	-501.3817138671875	-0.0	-0.0	-0.0	-0.0	-0.0	-0.0	174661.984375	-43526.97265625	2401.981689453125
0.531	-0.0	-0.0	-0.0	-0.0	-0.0	-0.0	7.819092750549316	-6.851325035095215	-501.6309509277344	-0.0	-0.0	-0.0	-0.0	-0.0	-0.0	174832.1875	-43642.69140625	2614.35693359375
0.5315	-0.0	-0.0	-0.0	-0.0	-0.0	-0.0	8.731505393981934	-7.179257392883301	-501.6312561035156	-0.0	-0.0	-0.0	-0.0	-0.0	-0.0	174727.78125	-44016.24609375	2932.58251953125
